<svg width="12" height="12" viewBox="0 0 12 12" fill="none" xmlns="http://www.w3.org/2000/svg">
<path d="M5.99999 0.166672C2.77999 0.166672 0.166656 2.78001 0.166656 6.00001C0.166656 9.22001 2.77999 11.8333 5.99999 11.8333C9.21999 11.8333 11.8333 9.22001 11.8333 6.00001C11.8333 2.78001 9.21999 0.166672 5.99999 0.166672ZM4.41916 8.50251L2.32499 6.40834C2.09749 6.18084 2.09749 5.81334 2.32499 5.58584C2.55249 5.35834 2.91999 5.35834 3.14749 5.58584L4.83332 7.26584L8.84666 3.25251C9.07416 3.02501 9.44166 3.02501 9.66916 3.25251C9.89666 3.48001 9.89666 3.84751 9.66916 4.07501L5.24166 8.50251C5.01999 8.73001 4.64666 8.73001 4.41916 8.50251Z" fill="white"/>
</svg>
