<svg width="17" height="20" viewBox="0 0 17 20" fill="none" xmlns="http://www.w3.org/2000/svg">
<path d="M11.5 0.833336H2.33335C1.41669 0.833336 0.666687 1.58334 0.666687 2.5V13.3333C0.666687 13.7917 1.04169 14.1667 1.50002 14.1667C1.95835 14.1667 2.33335 13.7917 2.33335 13.3333V3.33334C2.33335 2.875 2.70835 2.5 3.16669 2.5H11.5C11.9584 2.5 12.3334 2.125 12.3334 1.66667C12.3334 1.20834 11.9584 0.833336 11.5 0.833336ZM14.8334 4.16667H5.66669C4.75002 4.16667 4.00002 4.91667 4.00002 5.83334V17.5C4.00002 18.4167 4.75002 19.1667 5.66669 19.1667H14.8334C15.75 19.1667 16.5 18.4167 16.5 17.5V5.83334C16.5 4.91667 15.75 4.16667 14.8334 4.16667ZM14 17.5H6.50002C6.04169 17.5 5.66669 17.125 5.66669 16.6667V6.66667C5.66669 6.20834 6.04169 5.83334 6.50002 5.83334H14C14.4584 5.83334 14.8334 6.20834 14.8334 6.66667V16.6667C14.8334 17.125 14.4584 17.5 14 17.5Z" fill="#F3F3D9"/>
</svg>
