<svg width="16" height="19" viewBox="0 0 16 19" fill="none" xmlns="http://www.w3.org/2000/svg">
<path d="M10.8333 0H1.66667C0.75 0 0 0.75 0 1.66667V12.5C0 12.9583 0.375 13.3333 0.833333 13.3333C1.29167 13.3333 1.66667 12.9583 1.66667 12.5V2.5C1.66667 2.04167 2.04167 1.66667 2.5 1.66667H10.8333C11.2917 1.66667 11.6667 1.29167 11.6667 0.833333C11.6667 0.375 11.2917 0 10.8333 0ZM14.1667 3.33333H5C4.08333 3.33333 3.33333 4.08333 3.33333 5V16.6667C3.33333 17.5833 4.08333 18.3333 5 18.3333H14.1667C15.0833 18.3333 15.8333 17.5833 15.8333 16.6667V5C15.8333 4.08333 15.0833 3.33333 14.1667 3.33333ZM13.3333 16.6667H5.83333C5.375 16.6667 5 16.2917 5 15.8333V5.83333C5 5.375 5.375 5 5.83333 5H13.3333C13.7917 5 14.1667 5.375 14.1667 5.83333V15.8333C14.1667 16.2917 13.7917 16.6667 13.3333 16.6667Z" fill="#110A48"/>
</svg>
