<svg width="31" height="31" viewBox="0 0 31 31" fill="none" xmlns="http://www.w3.org/2000/svg">
<path d="M31 0L31 30.8333L0 -1.35505e-06L31 0Z" fill="#110A48"/>
<g clip-path="url(#clip0_51_33)">
<path d="M22 5C19.24 5 17 7.24 17 10C17 12.76 19.24 15 22 15C24.76 15 27 12.76 27 10C27 7.24 24.76 5 22 5ZM20.645 12.145L18.85 10.35C18.655 10.155 18.655 9.84 18.85 9.645C19.045 9.45 19.36 9.45 19.555 9.645L21 11.085L24.44 7.645C24.635 7.45 24.95 7.45 25.145 7.645C25.34 7.84 25.34 8.155 25.145 8.35L21.35 12.145C21.16 12.34 20.84 12.34 20.645 12.145Z" fill="white"/>
</g>
<defs>
<clipPath id="clip0_51_33">
<rect width="12" height="12" fill="white" transform="translate(16 4)"/>
</clipPath>
</defs>
</svg>
