<svg width="29" height="29" viewBox="0 0 29 29" fill="none" xmlns="http://www.w3.org/2000/svg">
<circle cx="14.5" cy="14.5" r="13.5" fill="#E18056" stroke="#110A48" stroke-width="2"/>
<path d="M15.1768 17.1592H13.0762C13.082 16.626 13.126 16.1689 13.208 15.7881C13.2959 15.4072 13.4395 15.0645 13.6387 14.7598C13.8379 14.4492 14.1074 14.1328 14.4473 13.8105C14.7168 13.5586 14.957 13.3213 15.168 13.0986C15.3848 12.8701 15.5547 12.6328 15.6777 12.3867C15.8008 12.1348 15.8623 11.8506 15.8623 11.5342C15.8623 11.1768 15.8037 10.8779 15.6865 10.6377C15.5752 10.3975 15.4082 10.2158 15.1855 10.0928C14.9688 9.96387 14.6963 9.89941 14.3682 9.89941C14.0986 9.89941 13.8438 9.95508 13.6035 10.0664C13.3633 10.1777 13.1699 10.3506 13.0234 10.585C12.877 10.8135 12.7979 11.1123 12.7861 11.4814H10.457C10.4746 10.7139 10.6562 10.0752 11.002 9.56543C11.3477 9.0498 11.8135 8.66602 12.3994 8.41406C12.9854 8.15625 13.6416 8.02734 14.3682 8.02734C15.1709 8.02734 15.8564 8.16211 16.4248 8.43164C16.999 8.69531 17.4355 9.08203 17.7344 9.5918C18.0391 10.1016 18.1914 10.7168 18.1914 11.4375C18.1914 11.9531 18.0918 12.416 17.8926 12.8262C17.6934 13.2305 17.4297 13.6084 17.1016 13.96C16.7734 14.3115 16.4189 14.666 16.0381 15.0234C15.7041 15.3223 15.4785 15.6416 15.3613 15.9814C15.2441 16.3213 15.1826 16.7139 15.1768 17.1592ZM12.8564 19.8926C12.8564 19.541 12.9736 19.248 13.208 19.0137C13.4482 18.7793 13.7705 18.6621 14.1748 18.6621C14.5791 18.6621 14.8984 18.7793 15.1328 19.0137C15.373 19.248 15.4932 19.541 15.4932 19.8926C15.4932 20.2324 15.373 20.5195 15.1328 20.7539C14.8984 20.9883 14.5791 21.1055 14.1748 21.1055C13.7705 21.1055 13.4482 20.9883 13.208 20.7539C12.9736 20.5195 12.8564 20.2324 12.8564 19.8926Z" fill="#110A48"/>
</svg>
