<svg width="15" height="15" viewBox="0 0 15 15" fill="none" xmlns="http://www.w3.org/2000/svg">
<g clip-path="url(#clip0_97_442)">
<path d="M7.5 1.25C5.08125 1.25 3.125 3.20625 3.125 5.625C3.125 8.23125 5.8875 11.825 7.025 13.1938C7.275 13.4938 7.73125 13.4938 7.98125 13.1938C9.1125 11.825 11.875 8.23125 11.875 5.625C11.875 3.20625 9.91875 1.25 7.5 1.25ZM7.5 7.1875C6.6375 7.1875 5.9375 6.4875 5.9375 5.625C5.9375 4.7625 6.6375 4.0625 7.5 4.0625C8.3625 4.0625 9.0625 4.7625 9.0625 5.625C9.0625 6.4875 8.3625 7.1875 7.5 7.1875Z" fill="#A9D4D7"/>
</g>
<defs>
<clipPath id="clip0_97_442">
<rect width="15" height="15" fill="white"/>
</clipPath>
</defs>
</svg>
