<svg width="25" height="25" viewBox="0 0 25 25" fill="none" xmlns="http://www.w3.org/2000/svg">
<path d="M12.625 6.7514V5.625C12.625 5.32364 12.4476 5.04949 12.1716 4.93252L12.1713 4.93239C12.0802 4.89408 11.9844 4.875 11.8889 4.875C11.6966 4.875 11.5078 4.95213 11.3674 5.09572L9.53411 6.97072C9.24774 7.26358 9.24756 7.73691 9.53415 8.02933C9.53417 8.02935 9.5342 8.02938 9.53422 8.0294L11.3674 9.90428C11.578 10.1196 11.8946 10.1838 12.1712 10.0676L12.1716 10.0675C12.4475 9.95054 12.625 9.67706 12.625 9.375V8.25187C14.8648 8.31905 16.6528 10.1858 16.6528 12.5C16.6528 13.1223 16.5195 13.7102 16.2834 14.246C16.2408 14.3355 16.2161 14.4328 16.2108 14.5321C16.2054 14.632 16.2197 14.7321 16.2529 14.8264C16.2861 14.9207 16.3376 15.0074 16.4044 15.0813C16.4712 15.1552 16.552 15.2148 16.6421 15.2564C16.7322 15.2979 16.8297 15.3206 16.9287 15.323C17.0277 15.3253 17.1261 15.3073 17.218 15.27C17.3099 15.2328 17.3934 15.1771 17.4635 15.1064C17.5332 15.0362 17.5883 14.9527 17.6258 14.8608C17.9424 14.1424 18.125 13.3427 18.125 12.5C18.125 9.37718 15.6694 6.81972 12.625 6.7514ZM8.05632 9.68702L8.05621 9.68702C7.91107 9.68575 7.769 9.72823 7.64773 9.80881C7.52675 9.88921 7.43194 10.0039 7.37467 10.1383C7.05777 10.8569 6.875 11.657 6.875 12.5C6.875 15.6228 9.33063 18.1803 12.375 18.2486V19.375C12.375 19.6764 12.5524 19.9505 12.8284 20.0675L12.8287 20.0676C12.9198 20.1059 13.0156 20.125 13.1111 20.125C13.3034 20.125 13.4922 20.0479 13.6326 19.9043L15.4659 18.0293C15.7523 17.7363 15.7523 17.2637 15.4659 16.9707L13.6326 15.0957C13.422 14.8804 13.1054 14.8162 12.8288 14.9324L12.8284 14.9325C12.5524 15.0495 12.375 15.3236 12.375 15.625V16.7481C10.1352 16.681 8.34722 14.8142 8.34722 12.5C8.34722 11.8773 8.48067 11.2891 8.71701 10.7531C8.76869 10.6398 8.79172 10.5152 8.78414 10.3906C8.77654 10.2658 8.7384 10.1447 8.67302 10.0385C8.60763 9.93226 8.51702 9.84423 8.40925 9.78271C8.30147 9.72118 8.18011 9.68821 8.05632 9.68702Z" fill="#F2F3D8" stroke="#F2F3D8" stroke-width="0.25"/>
</svg>
