<svg width="40" height="40" viewBox="0 0 40 40" fill="none" xmlns="http://www.w3.org/2000/svg">
<path d="M36.2545 18.1818C35.4182 10.6 29.4 4.58182 21.8182 3.74545V1.81818C21.8182 0.818182 21 0 20 0C19 0 18.1818 0.818182 18.1818 1.81818V3.74545C10.6 4.58182 4.58182 10.6 3.74545 18.1818H1.81818C0.818182 18.1818 0 19 0 20C0 21 0.818182 21.8182 1.81818 21.8182H3.74545C4.58182 29.4 10.6 35.4182 18.1818 36.2545V38.1818C18.1818 39.1818 19 40 20 40C21 40 21.8182 39.1818 21.8182 38.1818V36.2545C29.4 35.4182 35.4182 29.4 36.2545 21.8182H38.1818C39.1818 21.8182 40 21 40 20C40 19 39.1818 18.1818 38.1818 18.1818H36.2545ZM20 32.7273C12.9636 32.7273 7.27273 27.0364 7.27273 20C7.27273 12.9636 12.9636 7.27273 20 7.27273C27.0364 7.27273 32.7273 12.9636 32.7273 20C32.7273 27.0364 27.0364 32.7273 20 32.7273Z" fill="#110A48"/>
</svg>
