<svg width="35" height="31" viewBox="0 0 35 31" fill="none" xmlns="http://www.w3.org/2000/svg">
<path d="M3.6746 31H31.3254C34.1529 31 35.9155 27.9561 34.5018 25.5318L20.6764 1.81817C19.2626 -0.606056 15.7374 -0.606056 14.3236 1.81817L0.498249 25.5318C-0.915504 27.9561 0.847097 31 3.6746 31ZM17.5 18.2409C16.4902 18.2409 15.664 17.4207 15.664 16.4182V12.7727C15.664 11.7702 16.4902 10.95 17.5 10.95C18.5098 10.95 19.336 11.7702 19.336 12.7727V16.4182C19.336 17.4207 18.5098 18.2409 17.5 18.2409ZM19.336 25.5318H15.664V21.8864H19.336V25.5318Z" fill="#E18056"/>
</svg>
