<svg width="36" height="50" viewBox="0 0 36 50" fill="none" xmlns="http://www.w3.org/2000/svg">
<path d="M1 17.9764C1 8.59153 8.59962 1 18 1C27.4004 1 35 8.59153 35 17.9764C35 23.0408 32.2872 29.2083 28.8768 34.9201C25.4916 40.5896 21.5235 45.6418 19.211 48.4363C18.582 49.1883 17.4422 49.1879 16.8137 48.4351C14.4896 45.6421 10.5149 40.5896 7.12624 34.9197C3.71278 29.2082 1 23.0407 1 17.9764Z" fill="#BBC897" stroke="#110A48" stroke-width="2"/>
<path d="M18 9C13.032 9 9 13.032 9 18C9 22.968 13.032 27 18 27C22.968 27 27 22.968 27 18C27 13.032 22.968 9 18 9ZM15.561 21.861L12.33 18.63C11.979 18.279 11.979 17.712 12.33 17.361C12.681 17.01 13.248 17.01 13.599 17.361L16.2 19.953L22.392 13.761C22.743 13.41 23.31 13.41 23.661 13.761C24.012 14.112 24.012 14.679 23.661 15.03L16.83 21.861C16.488 22.212 15.912 22.212 15.561 21.861Z" fill="#110A48"/>
</svg>
