<svg width="36" height="50" viewBox="0 0 36 50" fill="none" xmlns="http://www.w3.org/2000/svg">
<path d="M1 17.9764C1 8.59153 8.59962 1 18 1C27.4004 1 35 8.59153 35 17.9764C35 23.0408 32.2872 29.2083 28.8768 34.9201C25.4916 40.5896 21.5235 45.6418 19.211 48.4363C18.582 49.1883 17.4422 49.1879 16.8137 48.4351C14.4896 45.6421 10.5149 40.5896 7.12624 34.9197C3.71278 29.2082 1 23.0407 1 17.9764ZM10.5714 17.9764C10.5714 22.0738 13.9004 25.3965 18 25.3965C22.0996 25.3965 25.4286 22.0738 25.4286 17.9764C25.4286 13.8789 22.0996 10.5562 18 10.5562C13.9004 10.5562 10.5714 13.8789 10.5714 17.9764Z" fill="#E18056" stroke="#110A48" stroke-width="2"/>
<circle cx="18" cy="18" r="8" fill="#110A48"/>
</svg>
